<?xml version="1.0" encoding="iso-8859-1"?>
<!-- Uploaded to: SVG Repo, www.svgrepo.com, Generator: SVG Repo Mixer Tools -->
<svg xmlns="http://www.w3.org/2000/svg" xmlns:xlink="http://www.w3.org/1999/xlink" version="1.1" id="Capa_1"  viewBox="0 0 470 470" xml:space="preserve" width="512" height="512">
<g>
	<polygon style="fill:#FDCE6E;" points="387.5,121.48 387.5,229.48 327.5,259.48 357.5,121.48  "/>
	<polygon style="fill:#FDFA7B;" points="357.5,121.48 357.5,259.48 7.5,229.48 7.5,121.48  "/>
	<polygon style="fill:#FDFA7B;" points="387.5,229.48 387.5,259.48 327.5,289.48 357.5,229.48  "/>
	<polygon style="fill:#FFFFFF;" points="357.5,229.48 357.5,289.48 7.5,259.48 7.5,229.48  "/>
	<polygon style="fill:#FD7555;" points="412.928,265.457 387.5,259.479 7.5,259.479 7.5,373.52 432.5,373.52 442.5,323.297  "/>
	<path style="fill:#EF431D;" d="M433.08,270.191l-20.152-4.735c-2.645,5.806-4.028,12.012-4.028,18.263   c0,17.072,9.556,31.953,23.6,39.577v50.223h30v-66.32L433.08,270.191z"/>
	<path style="fill:#FDCE6E;" d="M462.5,307.199c-2.68,0.98-5.58,1.52-8.6,1.52c-13.81,0-25-11.19-25-25   c0-5.02,1.63-9.608,4.18-13.528C449.18,273.792,462.5,290.699,462.5,307.199z"/>
	<path style="fill:#3F4C53;" d="M387.5,328.52v90c24.85,0,45-20.15,45-45S412.35,328.52,387.5,328.52z"/>
	<path style="fill:#496A7E;" d="M387.5,328.52c8.28,0,15,20.15,15,45c0,24.85-6.72,45-15,45c-24.85,0-45-20.15-45-45   C342.5,348.67,362.65,328.52,387.5,328.52z"/>
	<path style="fill:#FFFFFF;" d="M387.5,388.52c-8.271,0-15-6.729-15-15s6.729-15,15-15s15,6.729,15,15S395.771,388.52,387.5,388.52z   "/>
	<path style="fill:#3F4C53;" d="M82.5,328.52v90c24.85,0,45-20.15,45-45S107.35,328.52,82.5,328.52z"/>
	<path style="fill:#496A7E;" d="M82.5,328.52c8.28,0,15,20.15,15,45c0,24.85-6.72,45-15,45c-24.85,0-45-20.15-45-45   C37.5,348.67,57.65,328.52,82.5,328.52z"/>
	<path style="fill:#FFFFFF;" d="M82.5,388.52c-8.271,0-15-6.729-15-15s6.729-15,15-15s15,6.729,15,15S90.771,388.52,82.5,388.52z"/>
	<path style="fill:#FD7555;" d="M349.5,101.48v58c20.99,0,38-17.01,38-38L349.5,101.48z"/>
	<path style="fill:#FE9F88;" d="M311.5,121.48l23-20l23,20c0,20.99-3.58,38-8,38C328.51,159.48,311.5,142.47,311.5,121.48z"/>
	<path style="fill:#FE9F88;" d="M7.5,121.48l38-20l38,20c0,20.99-17.01,38-38,38S7.5,142.47,7.5,121.48z"/>
	<path style="fill:#FE9F88;" d="M159.5,121.48l38-20l38,20c0,20.99-17.01,38-38,38S159.5,142.47,159.5,121.48z"/>
	<path style="fill:#EF431D;" d="M83.5,121.48l38-20l38,20c0,20.99-17.01,38-38,38S83.5,142.47,83.5,121.48z"/>
	<path style="fill:#EF431D;" d="M235.5,121.48l38-20l38,20c0,20.99-17.01,38-38,38S235.5,142.47,235.5,121.48z"/>
	<path style="fill:#FE9F88;" d="M357.5,51.48h-30l30,70h30v-40C387.5,64.98,374,51.48,357.5,51.48z"/>
	<path style="fill:#FEC8BB;" d="M357.5,81.48v40h-46l-20-35l20-35h16C344,51.48,357.5,64.98,357.5,81.48z"/>
	<polygon style="fill:#FD7555;" points="311.5,51.48 311.5,121.48 235.5,121.48 215.5,86.48 235.5,51.48  "/>
	<polygon style="fill:#FEC8BB;" points="235.5,51.48 235.5,121.48 159.5,121.48 139.5,86.48 159.5,51.48  "/>
	<polygon style="fill:#FD7555;" points="159.5,51.48 159.5,121.48 83.5,121.48 63.5,86.48 83.5,51.48  "/>
	<path style="fill:#FEC8BB;" d="M83.5,51.48v70h-76v-40c0-16.5,13.5-30,30-30H83.5z"/>
	<path d="M387.5,351.02c-12.407,0-22.5,10.093-22.5,22.5c0,4.142,3.358,7.5,7.5,7.5s7.5-3.358,7.5-7.5c0-4.136,3.364-7.5,7.5-7.5   s7.5,3.364,7.5,7.5s-3.364,7.5-7.5,7.5c-4.142,0-7.5,3.358-7.5,7.5s3.358,7.5,7.5,7.5c12.407,0,22.5-10.093,22.5-22.5   S399.907,351.02,387.5,351.02z"/>
	<path d="M67.5,381.02c4.142,0,7.5-3.358,7.5-7.5c0-4.136,3.364-7.5,7.5-7.5s7.5,3.364,7.5,7.5s-3.364,7.5-7.5,7.5   c-4.142,0-7.5,3.358-7.5,7.5s3.358,7.5,7.5,7.5c12.407,0,22.5-10.093,22.5-22.5s-10.093-22.5-22.5-22.5S60,361.113,60,373.52   C60,377.662,63.358,381.02,67.5,381.02z"/>
	<path d="M357.5,221.98h-320c-4.142,0-7.5,3.358-7.5,7.5s3.358,7.5,7.5,7.5h320c4.142,0,7.5-3.358,7.5-7.5   S361.642,221.98,357.5,221.98z"/>
	<path d="M469.993,306.918c-0.001-0.038-0.001-0.076-0.003-0.114c-0.207-19.959-15.948-39.612-35.197-43.913L395,253.539V81.48   c0-20.678-16.822-37.5-37.5-37.5h-320C16.822,43.98,0,60.803,0,81.48V373.52c0,4.142,3.358,7.5,7.5,7.5h23.044   c3.651,25.407,25.554,45,51.956,45c28.949,0,52.5-23.551,52.5-52.5s-23.551-52.5-52.5-52.5c-26.402,0-48.304,19.593-51.956,45H15   V266.98h371.63l35.937,8.445c-0.759,2.721-1.167,5.504-1.167,8.294c0,17.92,14.58,32.5,32.5,32.5c0.368,0,0.734-0.012,1.1-0.024   v49.823h-15.544c-3.651-25.407-25.554-45-51.956-45s-48.304,19.593-51.956,45H157.5c-4.142,0-7.5,3.358-7.5,7.5s3.358,7.5,7.5,7.5   h178.044c3.651,25.407,25.554,45,51.956,45s48.304-19.593,51.956-45H462.5c4.142,0,7.5-3.358,7.5-7.5v-66.318   C470,307.107,469.994,307.012,469.993,306.918z M82.5,336.02c20.678,0,37.5,16.822,37.5,37.5s-16.822,37.5-37.5,37.5   S45,394.197,45,373.52S61.822,336.02,82.5,336.02z M37.5,58.98h320c12.407,0,22.5,10.093,22.5,22.5v32.5h-61v-32.5   c0-4.142-3.358-7.5-7.5-7.5s-7.5,3.358-7.5,7.5v32.5h-61v-32.5c0-4.142-3.358-7.5-7.5-7.5s-7.5,3.358-7.5,7.5v32.5h-61v-32.5   c0-4.142-3.358-7.5-7.5-7.5s-7.5,3.358-7.5,7.5v32.5H91v-32.5c0-4.142-3.358-7.5-7.5-7.5s-7.5,3.358-7.5,7.5v32.5H15v-32.5   C15,69.074,25.093,58.98,37.5,58.98z M379.064,128.98c-3.351,13.203-15.334,23-29.564,23s-26.213-9.797-29.564-23H379.064z    M303.064,128.98c-3.351,13.203-15.334,23-29.564,23s-26.213-9.797-29.564-23H303.064z M227.064,128.98   c-3.351,13.203-15.334,23-29.564,23s-26.213-9.797-29.564-23H227.064z M151.064,128.98c-3.351,13.203-15.334,23-29.564,23   s-26.213-9.797-29.564-23H151.064z M75.064,128.98c-3.351,13.203-15.334,23-29.564,23s-26.213-9.797-29.564-23H75.064z M15,155.213   c8.076,7.308,18.776,11.767,30.5,11.767c15.867,0,29.855-8.169,38-20.516c8.145,12.347,22.133,20.516,38,20.516   s29.855-8.169,38-20.516c8.145,12.347,22.133,20.516,38,20.516s29.855-8.169,38-20.516c8.145,12.347,22.133,20.516,38,20.516   s29.855-8.169,38-20.516c8.145,12.347,22.133,20.516,38,20.516c11.724,0,22.424-4.459,30.5-11.767v96.767H15V155.213z    M387.5,411.02c-20.678,0-37.5-16.822-37.5-37.5s16.822-37.5,37.5-37.5s37.5,16.822,37.5,37.5S408.178,411.02,387.5,411.02z    M436.4,283.72c0-1.422,0.203-2.83,0.585-4.219c8.26,4.088,15.079,12.66,17.272,21.704c-0.119,0.002-0.237,0.015-0.357,0.015   C444.25,301.22,436.4,293.37,436.4,283.72z"/>
</g>















</svg>